<svg width="26" height="25" viewBox="0 0 26 25" fill="none" xmlns="http://www.w3.org/2000/svg">
<path d="M22.375 16.625V22.125H3.125V16.625H22.375ZM23.75 13.875H1.75C0.99375 13.875 0.375 14.4937 0.375 15.25V23.5C0.375 24.2563 0.99375 24.875 1.75 24.875H23.75C24.5063 24.875 25.125 24.2563 25.125 23.5V15.25C25.125 14.4937 24.5063 13.875 23.75 13.875ZM5.875 21.4375C4.7475 21.4375 3.8125 20.5163 3.8125 19.375C3.8125 18.2337 4.7475 17.3125 5.875 17.3125C7.0025 17.3125 7.9375 18.2337 7.9375 19.375C7.9375 20.5163 7.01625 21.4375 5.875 21.4375ZM22.375 2.875V8.375H3.125V2.875H22.375ZM23.75 0.125H1.75C0.99375 0.125 0.375 0.74375 0.375 1.5V9.75C0.375 10.5063 0.99375 11.125 1.75 11.125H23.75C24.5063 11.125 25.125 10.5063 25.125 9.75V1.5C25.125 0.74375 24.5063 0.125 23.75 0.125ZM5.875 7.6875C4.7475 7.6875 3.8125 6.76625 3.8125 5.625C3.8125 4.48375 4.7475 3.5625 5.875 3.5625C7.0025 3.5625 7.9375 4.4975 7.9375 5.625C7.9375 6.7525 7.01625 7.6875 5.875 7.6875Z" fill="#CCCCCC"/>
</svg>
