<svg width="34" height="33" viewBox="0 0 34 33" fill="none" xmlns="http://www.w3.org/2000/svg">
<path d="M27.8051 9.37751L19.8851 3.83626C17.7263 2.32376 14.4126 2.40626 12.3363 4.01501L5.44758 9.39125C4.07258 10.4638 2.98633 12.6638 2.98633 14.3963V23.8838C2.98633 27.39 5.83258 30.25 9.33883 30.25H24.1613C27.6676 30.25 30.5138 27.4038 30.5138 23.8975V14.575C30.5138 12.7188 29.3176 10.4363 27.8051 9.37751ZM17.7813 24.75C17.7813 25.3138 17.3138 25.7813 16.7501 25.7813C16.1863 25.7813 15.7188 25.3138 15.7188 24.75V20.625C15.7188 20.0613 16.1863 19.5938 16.7501 19.5938C17.3138 19.5938 17.7813 20.0613 17.7813 20.625V24.75Z" fill="#292D32"/>
</svg>
